# xmcd
#
# Track frame offsets: 
#        150
#        15821
#        36527
#        55389
#        74053
#        89993
#        106834
#        125444
#        143451
#        157596
#        173442
#
# Disc length: 2627 seconds
#
# Revision: 2
# Processed by: cddbd v1.5.2PL0 Copyright (c) Steve Scherf et al.
# Submitted via: ExactAudioCopyFreeDBPlugin 1.0
#
DISCID=8a0a410b
DTITLE=Ciara - Basic Instinct
DYEAR=2010
DGENRE=R&B
TTITLE0=Basic Instinct (U Got Me)
TTITLE1=Ride feat. Ludacris
TTITLE2=Gimmie Dat
TTITLE3=Heavy Rotation
TTITLE4=Girls Get Your Money
TTITLE5=Yeah I Know
TTITLE6=Speechless
TTITLE7=You Can Get It
TTITLE8=Turn It Up feat. Usher
TTITLE9=Wants For Dinner
TTITLE10=I Run It
EXTD=
EXTT0=
EXTT1=
EXTT2=
EXTT3=
EXTT4=
EXTT5=
EXTT6=
EXTT7=
EXTT8=
EXTT9=
EXTT10=
PLAYORDER=
